<?xml version="1.0" standalone="no"?>
<!DOCTYPE svg PUBLIC "-//W3C//DTD SVG 20010904//EN"
 "http://www.w3.org/TR/2001/REC-SVG-20010904/DTD/svg10.dtd">
<svg version="1.0" xmlns="http://www.w3.org/2000/svg"
 width="512.000000pt" height="512.000000pt" viewBox="0 0 512.000000 512.000000"
 preserveAspectRatio="xMidYMid meet">

<g transform="translate(0.000000,512.000000) scale(0.100000,-0.100000)"
fill="#000000" stroke="none">
<path d="M1125 4515 c-501 -289 -920 -537 -932 -551 l-23 -25 0 -1059 c0 -750
3 -1066 11 -1083 10 -22 526 -325 1743 -1024 61 -35 121 -63 135 -63 14 0 201
102 433 236 225 130 410 235 412 233 1 -2 12 -20 24 -40 27 -44 75 -82 137
-109 25 -11 45 -21 45 -23 0 -2 -61 -134 -135 -293 -74 -159 -135 -300 -135
-314 1 -14 6 -33 14 -42 26 -35 56 -37 197 -12 74 13 144 24 155 24 17 0 38
-28 99 -134 76 -131 99 -156 144 -156 10 0 28 8 40 18 11 9 80 145 152 302 73
157 136 290 141 297 19 24 94 26 166 4 l68 -20 100 -232 c57 -133 107 -237
119 -245 23 -16 59 -18 85 -4 10 5 51 63 91 127 104 168 76 154 231 121 172
-35 200 -36 227 -2 12 15 21 35 21 46 0 11 -48 131 -106 266 -58 136 -108 252
-110 258 -3 5 17 24 44 42 81 52 131 141 132 235 0 27 -5 91 -11 143 l-11 94
58 122 c55 114 59 128 59 193 -1 102 -26 149 -139 259 -90 88 -93 93 -110 161
-43 168 -55 202 -95 246 -62 71 -114 91 -268 104 -142 13 -142 13 -244 91 -31
23 -77 53 -102 65 l-47 23 0 577 c0 535 -1 578 -17 597 -26 30 -1823 1063
-1858 1068 -25 4 -174 -79 -940 -521z m1198 200 c114 -66 207 -122 207 -125 0
-5 -1509 -881 -1606 -932 l-32 -18 -237 137 c-149 85 -233 139 -227 145 5 5
374 220 818 477 l809 468 30 -16 c17 -9 123 -71 238 -136z m556 -321 c91 -53
169 -99 173 -102 4 -4 -362 -220 -814 -481 -641 -370 -824 -472 -837 -464 -9
5 -90 51 -180 103 -146 83 -162 95 -146 107 10 7 219 128 464 270 245 142 604
349 796 460 193 111 356 203 364 203 7 0 88 -43 180 -96z m580 -335 c124 -72
229 -134 233 -138 6 -6 -1577 -928 -1624 -946 -13 -5 -493 263 -485 271 9 9
1634 944 1641 944 5 0 110 -59 235 -131z m-2661 -552 c9 -7 12 -100 12 -401 0
-290 3 -397 13 -415 8 -17 103 -77 287 -184 294 -171 320 -181 363 -139 22 22
22 26 25 378 1 195 6 354 10 352 4 -2 112 -63 240 -137 l232 -134 0 -948 c0
-522 -2 -949 -4 -949 -2 0 -161 91 -353 201 -191 111 -451 261 -578 334 -126
73 -338 195 -470 271 l-240 139 -3 952 -2 952 227 -131 c126 -72 234 -135 241
-141z m2982 -227 l0 -490 -41 -20 c-22 -12 -76 -47 -119 -80 -88 -64 -93 -66
-230 -75 -121 -8 -177 -26 -233 -76 -57 -49 -79 -95 -113 -234 l-28 -110 -92
-90 c-118 -116 -139 -154 -139 -260 0 -77 2 -84 55 -185 57 -112 63 -146 46
-260 l-7 -46 -337 -194 c-185 -107 -352 -203 -370 -213 l-32 -19 2 952 3 951
810 469 c446 258 813 469 818 469 4 1 7 -219 7 -489z m-2612 16 l172 -99 0
-314 c0 -180 -4 -313 -9 -313 -5 0 -88 46 -185 101 l-176 102 0 314 c0 250 3
314 13 311 7 -2 90 -48 185 -102z m2828 -721 c122 -91 152 -104 284 -115 63
-6 127 -13 142 -16 44 -9 83 -63 97 -134 32 -159 44 -184 156 -300 136 -141
136 -140 59 -302 -64 -137 -67 -161 -51 -348 12 -130 1 -146 -142 -209 -125
-56 -177 -99 -248 -208 -29 -45 -65 -91 -80 -103 -35 -27 -89 -26 -188 6 -126
40 -182 41 -305 5 -175 -51 -194 -45 -287 95 -73 112 -123 153 -244 205 -154
66 -162 81 -139 281 13 110 4 151 -61 287 -27 57 -49 114 -49 128 0 39 24 73
110 158 97 96 115 127 151 270 24 96 32 114 63 143 22 19 46 32 63 32 79 1
235 21 265 33 18 8 69 40 113 72 111 81 124 87 172 82 33 -4 61 -18 119 -62z
m602 -1787 c40 -94 70 -173 68 -175 -2 -3 -50 5 -105 16 -70 14 -109 18 -125
11 -15 -5 -45 -43 -79 -97 -30 -48 -58 -87 -63 -85 -7 2 -60 115 -87 184 -5
14 4 22 39 37 75 33 102 59 166 154 71 107 87 127 102 127 6 0 44 -77 84 -172z
m-1279 43 c33 -49 74 -99 90 -110 44 -32 112 -61 144 -61 15 0 27 -3 27 -6 0
-3 -32 -76 -72 -161 -82 -178 -70 -174 -146 -39 -51 92 -60 95 -196 73 -55 -9
-102 -15 -103 -13 -6 6 183 406 192 406 2 0 31 -40 64 -89z"/>
<path d="M3702 2380 c-97 -26 -152 -51 -227 -105 -295 -210 -369 -615 -170
-916 126 -189 332 -299 559 -299 188 0 340 63 472 195 68 68 89 97 127 176 58
121 72 180 70 309 0 84 -6 121 -27 185 -67 210 -224 371 -426 439 -115 39
-270 46 -378 16z m270 -151 c201 -42 367 -220 398 -426 47 -305 -194 -583
-505 -583 -182 0 -347 94 -442 252 -36 59 -73 188 -73 252 0 63 26 168 56 233
36 77 149 190 227 228 107 52 227 67 339 44z"/>
<path d="M4107 1972 c-23 -21 -115 -104 -203 -185 -89 -81 -165 -147 -170
-147 -4 0 -42 34 -85 75 -85 83 -109 91 -155 52 -19 -17 -27 -33 -27 -56 0
-28 15 -48 113 -146 62 -63 124 -116 137 -120 13 -3 33 0 46 6 18 10 332 291
463 415 62 58 37 144 -41 144 -27 0 -46 -9 -78 -38z"/>
</g>
</svg>
